<svg id="svg" version="1.1" width="800" height="800" xmlns="http://www.w3.org/2000/svg" xmlns:xlink="http://www.w3.org/1999/xlink" ><g id="svgg"><path id="path0" d="M253.346 123.986 C 248.965 125.698,245.582 128.818,243.572 133.000 L 242.250 135.750 242.250 158.500 L 242.250 181.250 243.426 183.851 C 249.531 197.350,271.478 197.315,277.597 183.796 C 278.699 181.363,278.757 180.624,278.910 167.125 L 279.070 153.000 269.535 153.000 L 260.000 153.000 260.000 158.500 L 260.000 164.000 263.250 164.000 L 266.500 164.000 266.493 171.125 C 266.482 181.560,263.450 185.159,257.179 182.183 C 253.990 180.669,254.000 180.748,254.000 158.063 L 254.000 137.577 255.266 136.072 C 260.137 130.284,266.500 134.194,266.500 142.975 L 266.500 147.500 272.812 147.500 L 279.123 147.500 278.898 141.625 C 278.612 134.169,277.618 131.643,273.453 127.787 C 268.377 123.087,259.798 121.465,253.346 123.986 M122.500 158.448 L 122.500 193.500 128.500 193.500 L 134.500 193.500 134.500 180.478 L 134.500 167.456 138.082 167.603 L 141.665 167.750 144.753 179.250 C 146.451 185.575,147.993 191.369,148.180 192.125 L 148.519 193.500 155.043 193.500 C 161.025 193.500,161.545 193.427,161.301 192.625 C 161.154 192.144,159.229 185.307,157.023 177.431 L 153.012 163.113 154.762 161.202 C 158.265 157.378,158.731 155.721,158.916 146.424 C 159.301 127.150,155.947 124.034,134.375 123.622 L 122.500 123.396 122.500 158.448 M170.500 158.500 L 170.500 193.500 176.500 193.500 L 182.500 193.500 182.500 158.500 L 182.500 123.500 176.500 123.500 L 170.500 123.500 170.500 158.500 M192.500 158.500 L 192.500 193.500 198.495 193.500 L 204.489 193.500 204.620 172.277 L 204.750 151.054 212.250 172.270 L 219.750 193.486 226.125 193.493 L 232.500 193.500 232.500 158.500 L 232.500 123.500 226.500 123.500 L 220.500 123.500 220.483 145.875 L 220.466 168.250 213.134 145.875 L 205.802 123.500 199.151 123.500 L 192.500 123.500 192.500 158.500 M145.617 136.459 L 147.250 137.917 147.403 144.584 C 147.629 154.477,146.098 156.500,138.383 156.500 L 134.500 156.500 134.500 145.750 L 134.500 135.000 139.242 135.000 C 143.775 135.000,144.056 135.064,145.617 136.459 M17.500 252.000 L 17.500 299.500 200.250 299.500 L 383.000 299.500 383.000 252.000 L 383.000 204.500 200.250 204.500 L 17.500 204.500 17.500 252.000 M55.695 215.518 C 63.533 216.651,69.730 222.574,70.137 229.322 L 70.250 231.195 66.500 231.825 C 64.438 232.172,62.047 232.583,61.187 232.739 C 59.681 233.012,59.603 232.939,59.050 230.740 C 56.511 220.658,44.190 224.121,46.463 234.279 C 47.366 238.316,49.760 241.272,56.761 247.000 C 69.219 257.192,73.502 266.527,69.833 275.490 C 62.592 293.180,33.500 287.375,33.500 268.240 L 33.500 266.585 37.125 266.249 C 43.370 265.669,44.050 265.873,44.721 268.530 C 46.874 277.052,55.349 279.345,58.688 272.309 C 61.066 267.299,59.088 263.399,50.338 255.843 C 36.499 243.891,34.114 240.169,34.608 231.296 C 35.092 222.619,40.024 216.915,48.233 215.539 C 51.704 214.957,51.814 214.957,55.695 215.518 M145.750 216.283 C 153.406 218.477,157.500 224.857,157.500 234.591 L 157.500 239.500 151.500 239.500 L 145.500 239.500 145.500 234.450 L 145.500 229.400 143.839 227.739 C 140.767 224.667,135.963 225.009,133.633 228.467 C 131.851 231.110,131.851 269.890,133.633 272.533 C 135.963 275.991,140.767 276.333,143.839 273.261 L 145.500 271.600 145.500 265.800 L 145.500 260.000 151.548 260.000 L 157.596 260.000 157.423 266.875 C 157.270 272.957,157.109 274.037,156.024 276.242 C 149.617 289.263,129.062 289.157,122.635 276.071 L 121.250 273.250 121.250 250.750 L 121.250 228.250 122.547 225.500 C 126.484 217.154,135.831 213.441,145.750 216.283 M113.000 221.250 L 113.000 226.500 102.500 226.500 L 92.000 226.500 92.000 236.000 L 92.000 245.500 99.750 245.500 L 107.500 245.500 107.500 250.750 L 107.500 256.000 99.739 256.000 L 91.978 256.000 92.114 265.375 L 92.250 274.750 102.625 274.885 L 113.000 275.020 113.000 280.010 L 113.000 285.000 96.750 285.000 L 80.500 285.000 80.500 250.500 L 80.500 216.000 96.750 216.000 L 113.000 216.000 113.000 221.250 M178.000 243.133 C 178.000 268.456,178.061 270.379,178.914 271.969 C 181.194 276.221,186.887 276.594,189.956 272.693 C 190.986 271.383,191.000 270.998,191.000 243.683 L 191.000 216.000 197.000 216.000 L 203.000 216.000 203.000 244.411 C 203.000 276.520,203.097 275.615,199.171 279.982 C 190.873 289.212,174.629 287.569,168.719 276.902 L 167.250 274.250 167.110 245.125 L 166.969 216.000 172.485 216.000 L 178.000 216.000 178.000 243.133 M240.203 217.468 C 247.510 220.344,249.250 224.198,249.250 237.500 C 249.250 247.840,248.945 249.048,245.237 253.379 L 243.479 255.433 247.490 269.682 C 249.695 277.519,251.500 284.179,251.500 284.481 C 251.500 284.858,249.591 284.987,245.418 284.890 L 239.337 284.750 236.248 273.250 C 234.550 266.925,233.007 261.131,232.820 260.375 C 232.488 259.028,232.405 259.000,228.740 259.000 L 225.000 259.000 225.000 272.000 L 225.000 285.000 219.250 285.000 L 213.500 285.000 213.500 250.454 L 213.500 215.908 225.375 216.107 C 236.360 216.290,237.471 216.392,240.203 217.468 M273.000 250.500 L 273.000 285.000 267.250 285.000 L 261.500 285.000 261.500 250.500 L 261.500 216.000 267.250 216.000 L 273.000 216.000 273.000 250.500 M318.000 221.250 L 318.000 226.500 312.000 226.500 L 306.000 226.500 306.000 255.750 L 306.000 285.000 300.250 285.000 L 294.500 285.000 294.500 255.750 L 294.500 226.500 288.500 226.500 L 282.500 226.500 282.500 221.250 L 282.500 216.000 300.250 216.000 L 318.000 216.000 318.000 221.250 M342.812 228.172 C 345.076 234.730,347.002 240.169,347.093 240.260 C 347.185 240.351,349.141 234.930,351.442 228.213 L 355.624 216.000 361.997 216.000 L 368.370 216.000 360.685 236.041 L 353.000 256.081 353.000 270.541 L 353.000 285.000 347.250 285.000 L 341.500 285.000 341.500 270.875 L 341.500 256.750 334.045 237.250 C 329.945 226.525,326.431 217.349,326.236 216.860 C 325.905 216.029,326.315 215.979,332.289 216.110 L 338.696 216.250 342.812 228.172 M225.000 237.732 L 225.000 249.099 229.464 248.925 C 236.902 248.634,238.515 246.632,238.471 237.750 C 238.424 228.369,237.365 227.011,229.790 226.614 L 225.000 226.364 225.000 237.732 " stroke="none" fill="#000000" fill-rule="evenodd"></path></g></svg>